<svg version='1.1' baseProfile='full' xmlns='http://www.w3.org/2000/svg' width='478.9123098324337' height='145.48392326213394'><g transform='translate(5, 5)'><g transform='scale(1.132276193363355) translate(19.65625, -50)'><g><g><polyline points="20,100 32,100 44,100 " style="fill: none; stroke: black;"></polyline><g transform="translate(30, 105)"><text text-anchor="start" y="3" transform="rotate(90)" font-size="12">28x28</text></g></g><g transform="translate(-14, 105)"><text text-anchor="start" y="3" transform="rotate(90)" font-size="12">28x28</text></g></g><g><g><polyline points="350.4761904761905,100 362.4761904761905,100 374.4761904761905,100 " style="fill: none; stroke: black;"></polyline></g></g><g></g><g><g><polyline points="70.66666666666666,100 82.66666666666666,100 94.66666666666666,100 " style="fill: none; stroke: black;"></polyline><g transform="translate(80.66666666666666, 105)"><text text-anchor="start" y="3" transform="rotate(90)" font-size="12">28x28</text></g></g></g><g><g><polyline points="128.95238095238093,100 140.95238095238093,100 152.95238095238093,100 " style="fill: none; stroke: black;"></polyline><g transform="translate(138.95238095238093, 105)"><text text-anchor="start" y="3" transform="rotate(90)" font-size="12">14x14</text></g></g></g><g><g><polyline points="202.47619047619045,100 214.47619047619045,100 226.47619047619048,100 " style="fill: none; stroke: black;"></polyline><g transform="translate(212.47619047619045, 105)"><text text-anchor="start" y="3" transform="rotate(90)" font-size="12">14x14</text></g></g></g><g><g><polyline points="306.4761904761905,100 318.4761904761905,100 330.4761904761905,100 " style="fill: none; stroke: black;"></polyline><g transform="translate(316.4761904761905, 105)"><text text-anchor="start" y="3" transform="rotate(90)" font-size="12">7x7</text></g></g></g><g><g transform="translate(0, 50)"><path d="M 0 0 L 20 0 V 100 L 0 100 V 0 z" style="fill: rgb(33, 150, 243); stroke: rgb(12, 124, 213); stroke-width: 4; stroke-linejoin: round;"></path><g></g><text text-anchor="middle" x="10" y="117" font-size="12">1</text></g></g><g><g transform="translate(330.4761904761905, 50)"><path d="M 0 0 L 20 0 V 100 L 0 100 V 0 z" style="fill: rgb(255, 235, 59); stroke: rgb(255, 230, 8); stroke-width: 4; stroke-linejoin: round;"></path><g></g><text text-anchor="middle" x="10" y="117" font-size="12">3136</text></g></g><g><g transform="translate(374.4761904761905, 50)"><path d="M 0 0 L 20 0 V 100 L 0 100 V 0 z" style="fill: rgb(156, 39, 176); stroke: rgb(119, 30, 134); stroke-width: 4; stroke-linejoin: round;"></path><g></g><text text-anchor="middle" x="10" y="117" font-size="12">1</text></g></g><g><g transform="translate(44, 50)"><path d="M 0 0 L 26.666666666666664 0 V 100 L 0 100 V 0 z" style="fill: rgb(132, 132, 132); stroke: rgb(158, 158, 158); stroke-width: 12; stroke-linejoin: round;"></path><g></g><text text-anchor="middle" x="13.333333333333332" y="117" font-size="12">8</text></g></g><g><g transform="translate(94.66666666666666, 50)"><path d="M 0 0 L 34.285714285714285 23.333333333333336 V 76.66666666666666 L 0 100 V 0 z" style="fill: rgb(132, 132, 132); stroke: rgb(158, 158, 158); stroke-width: 12; stroke-linejoin: round;"></path><g></g><text text-anchor="middle" x="17.142857142857142" y="117" font-size="12">16</text></g></g><g><g transform="translate(152.95238095238093, 50)"><path d="M 0 23.333333333333336 L 49.52380952380952 23.333333333333336 V 76.66666666666666 L 0 76.66666666666666 V 23.333333333333336 z" style="fill: rgb(132, 132, 132); stroke: rgb(158, 158, 158); stroke-width: 12; stroke-linejoin: round;"></path><g></g><text text-anchor="middle" x="24.76190476190476" y="93.66666666666666" font-size="12">32</text></g></g><g><g transform="translate(226.47619047619048, 50)"><path d="M 0 23.333333333333336 L 80 35 V 65 L 0 76.66666666666666 V 23.333333333333336 z" style="fill: rgb(132, 132, 132); stroke: rgb(158, 158, 158); stroke-width: 12; stroke-linejoin: round;"></path><g></g><text text-anchor="middle" x="40" y="93.66666666666666" font-size="12">64</text></g></g></g></g></svg>