<svg version='1.1' baseProfile='full' xmlns='http://www.w3.org/2000/svg' width='1142.409423828125' height='130'><g transform='translate(5, 5)'><g transform='scale(1) translate(20, -50)'><g><g><polyline points="20,100 32,100 44,100 " style="fill: none; stroke: black;"></polyline><g transform="translate(30, 105)"><text text-anchor="start" y="3" transform="rotate(90)" font-size="12">28x28</text></g></g><g transform="translate(-14, 105)"><text text-anchor="start" y="3" transform="rotate(90)" font-size="12">28x28</text></g></g><g><g><polyline points="67.30708661417323,100 79.30708661417323,100 91.30708661417324,100 " style="fill: none; stroke: black;"></polyline><g transform="translate(77.30708661417323, 105)"><text text-anchor="start" y="3" transform="rotate(90)" font-size="12">28x28</text></g></g></g><g><g><polyline points="114.61417322834646,100 126.61417322834646,100 138.61417322834646,100 " style="fill: none; stroke: black;"></polyline><g transform="translate(124.61417322834646, 105)"><text text-anchor="start" y="3" transform="rotate(90)" font-size="12">28x28</text></g></g></g><g><g><polyline points="161.92125984251967,100 173.9212598425197,100 185.9212598425197,100 " style="fill: none; stroke: black;"></polyline><g transform="translate(171.92125984251967, 105)"><text text-anchor="start" y="3" transform="rotate(90)" font-size="12">28x28</text></g></g></g><g><g><polyline points="213.00787401574803,100 225.00787401574806,100 237.00787401574806,100 " style="fill: none; stroke: black;"></polyline><g transform="translate(223.00787401574803, 105)"><text text-anchor="start" y="3" transform="rotate(90)" font-size="12">14x14</text></g></g></g><g><g><polyline points="264.0944881889764,100 276.0944881889764,100 288.0944881889764,100 " style="fill: none; stroke: black;"></polyline><g transform="translate(274.0944881889764, 105)"><text text-anchor="start" y="3" transform="rotate(90)" font-size="12">14x14</text></g></g></g><g><g><polyline points="315.18110236220474,100 327.18110236220474,100 339.18110236220474,100 " style="fill: none; stroke: black;"></polyline><g transform="translate(325.18110236220474, 105)"><text text-anchor="start" y="3" transform="rotate(90)" font-size="12">14x14</text></g></g></g><g><g><polyline points="373.8267716535433,100 385.82677165354335,100 397.82677165354335,100 " style="fill: none; stroke: black;"></polyline><g transform="translate(383.8267716535433, 105)"><text text-anchor="start" y="3" transform="rotate(90)" font-size="12">14x14</text></g></g></g><g><g><polyline points="432.4724409448819,100 444.47244094488195,100 456.47244094488195,100 " style="fill: none; stroke: black;"></polyline><g transform="translate(442.4724409448819, 105)"><text text-anchor="start" y="3" transform="rotate(90)" font-size="12">14x14</text></g></g></g><g><g><polyline points="491.1181102362205,100 503.11811023622056,100 515.1181102362206,100 " style="fill: none; stroke: black;"></polyline><g transform="translate(501.1181102362205, 105)"><text text-anchor="start" y="3" transform="rotate(90)" font-size="12">14x14</text></g></g></g><g><g><polyline points="564.8818897637797,100 576.8818897637796,100 588.8818897637796,100 " style="fill: none; stroke: black;"></polyline><g transform="translate(574.8818897637797, 105)"><text text-anchor="start" y="3" transform="rotate(90)" font-size="12">7x7</text></g></g></g><g><g><polyline points="638.6456692913387,100 650.6456692913387,100 662.6456692913387,100 " style="fill: none; stroke: black;"></polyline><g transform="translate(648.6456692913387, 105)"><text text-anchor="start" y="3" transform="rotate(90)" font-size="12">7x7</text></g></g></g><g><g><polyline points="712.4094488188978,100 724.4094488188978,100 736.4094488188978,100 " style="fill: none; stroke: black;"></polyline><g transform="translate(722.4094488188978, 105)"><text text-anchor="start" y="3" transform="rotate(90)" font-size="12">7x7</text></g></g></g><g><g><polyline points="816.4094488188978,100 828.4094488188978,100 840.4094488188978,100 " style="fill: none; stroke: black;"></polyline><g transform="translate(826.4094488188978, 105)"><text text-anchor="start" y="3" transform="rotate(90)" font-size="12">7x7</text></g></g></g><g><g><polyline points="920.4094488188978,100 932.4094488188978,100 944.4094488188978,100 " style="fill: none; stroke: black;"></polyline><g transform="translate(930.4094488188978, 105)"><text text-anchor="start" y="3" transform="rotate(90)" font-size="12">7x7</text></g></g></g><g><g><polyline points="1024.4094488188978,100 1036.4094488188978,100 1048.4094488188978,100 " style="fill: none; stroke: black;"></polyline><g transform="translate(1034.4094488188978, 105)"><text text-anchor="start" y="3" transform="rotate(90)" font-size="12">7x7</text></g></g></g><g><g><polyline points="1068.4094488188978,100 1080.4094488188978,100 1092.4094488188978,100 " style="fill: none; stroke: black;"></polyline></g></g><g></g><g><g transform="translate(0, 50)"><path d="M 0 0 L 20 0 V 100 L 0 100 V 0 z" style="fill: rgb(33, 150, 243); stroke: rgb(12, 124, 213); stroke-width: 4; stroke-linejoin: round;"></path><g></g><text text-anchor="middle" x="10" y="117" font-size="12">1</text></g></g><g><g transform="translate(44, 50)"><path d="M 0 0 L 23.30708661417323 0 V 100 L 0 100 V 0 z" style="fill: rgb(139, 195, 74); stroke: rgb(113, 164, 54); stroke-width: 4; stroke-linejoin: round;"></path><g></g><text text-anchor="middle" x="11.653543307086615" y="117" font-size="12">8</text></g></g><g><g transform="translate(91.30708661417324, 50)"><path d="M 0 0 L 23.30708661417323 0 V 100 L 0 100 V 0 z" style="fill: rgb(244, 67, 54); stroke: rgb(234, 28, 13); stroke-width: 4; stroke-linejoin: round;"></path><g></g><text text-anchor="middle" x="11.653543307086615" y="117" font-size="12">8</text></g></g><g><g transform="translate(138.61417322834646, 50)"><path d="M 0 0 L 23.30708661417323 0 V 100 L 0 100 V 0 z" style="fill: rgb(121, 85, 72); stroke: rgb(89, 63, 53); stroke-width: 4; stroke-linejoin: round;"></path><g></g><text text-anchor="middle" x="11.653543307086615" y="117" font-size="12">8</text></g></g><g><g transform="translate(185.9212598425197, 50)"><path d="M 0 0 L 27.086614173228348 23.333333333333336 V 76.66666666666666 L 0 100 V 0 z" style="fill: rgb(139, 195, 74); stroke: rgb(113, 164, 54); stroke-width: 4; stroke-linejoin: round;"></path><g></g><text text-anchor="middle" x="13.543307086614174" y="117" font-size="12">16</text></g></g><g><g transform="translate(237.00787401574806, 50)"><path d="M 0 23.333333333333336 L 27.086614173228348 23.333333333333336 V 76.66666666666666 L 0 76.66666666666666 V 23.333333333333336 z" style="fill: rgb(244, 67, 54); stroke: rgb(234, 28, 13); stroke-width: 4; stroke-linejoin: round;"></path><g></g><text text-anchor="middle" x="13.543307086614174" y="93.66666666666666" font-size="12">16</text></g></g><g><g transform="translate(288.0944881889764, 50)"><path d="M 0 23.333333333333336 L 27.086614173228348 23.333333333333336 V 76.66666666666666 L 0 76.66666666666666 V 23.333333333333336 z" style="fill: rgb(121, 85, 72); stroke: rgb(89, 63, 53); stroke-width: 4; stroke-linejoin: round;"></path><g></g><text text-anchor="middle" x="13.543307086614174" y="93.66666666666666" font-size="12">16</text></g></g><g><g transform="translate(339.18110236220474, 50)"><path d="M 0 23.333333333333336 L 34.645669291338585 23.333333333333336 V 76.66666666666666 L 0 76.66666666666666 V 23.333333333333336 z" style="fill: rgb(139, 195, 74); stroke: rgb(113, 164, 54); stroke-width: 4; stroke-linejoin: round;"></path><g></g><text text-anchor="middle" x="17.322834645669293" y="93.66666666666666" font-size="12">32</text></g></g><g><g transform="translate(397.82677165354335, 50)"><path d="M 0 23.333333333333336 L 34.645669291338585 23.333333333333336 V 76.66666666666666 L 0 76.66666666666666 V 23.333333333333336 z" style="fill: rgb(244, 67, 54); stroke: rgb(234, 28, 13); stroke-width: 4; stroke-linejoin: round;"></path><g></g><text text-anchor="middle" x="17.322834645669293" y="93.66666666666666" font-size="12">32</text></g></g><g><g transform="translate(456.47244094488195, 50)"><path d="M 0 23.333333333333336 L 34.645669291338585 23.333333333333336 V 76.66666666666666 L 0 76.66666666666666 V 23.333333333333336 z" style="fill: rgb(121, 85, 72); stroke: rgb(89, 63, 53); stroke-width: 4; stroke-linejoin: round;"></path><g></g><text text-anchor="middle" x="17.322834645669293" y="93.66666666666666" font-size="12">32</text></g></g><g><g transform="translate(515.1181102362206, 50)"><path d="M 0 23.333333333333336 L 49.76377952755905 35 V 65 L 0 76.66666666666666 V 23.333333333333336 z" style="fill: rgb(139, 195, 74); stroke: rgb(113, 164, 54); stroke-width: 4; stroke-linejoin: round;"></path><g></g><text text-anchor="middle" x="24.881889763779526" y="93.66666666666666" font-size="12">64</text></g></g><g><g transform="translate(588.8818897637796, 50)"><path d="M 0 35 L 49.76377952755905 35 V 65 L 0 65 V 35 z" style="fill: rgb(244, 67, 54); stroke: rgb(234, 28, 13); stroke-width: 4; stroke-linejoin: round;"></path><g></g><text text-anchor="middle" x="24.881889763779526" y="82" font-size="12">64</text></g></g><g><g transform="translate(662.6456692913387, 50)"><path d="M 0 35 L 49.76377952755905 35 V 65 L 0 65 V 35 z" style="fill: rgb(121, 85, 72); stroke: rgb(89, 63, 53); stroke-width: 4; stroke-linejoin: round;"></path><g></g><text text-anchor="middle" x="24.881889763779526" y="82" font-size="12">64</text></g></g><g><g transform="translate(736.4094488188978, 50)"><path d="M 0 35 L 80 35 V 65 L 0 65 V 35 z" style="fill: rgb(139, 195, 74); stroke: rgb(113, 164, 54); stroke-width: 4; stroke-linejoin: round;"></path><g></g><text text-anchor="middle" x="40" y="82" font-size="12">128</text></g></g><g><g transform="translate(840.4094488188978, 50)"><path d="M 0 35 L 80 35 V 65 L 0 65 V 35 z" style="fill: rgb(244, 67, 54); stroke: rgb(234, 28, 13); stroke-width: 4; stroke-linejoin: round;"></path><g></g><text text-anchor="middle" x="40" y="82" font-size="12">128</text></g></g><g><g transform="translate(944.4094488188978, 50)"><path d="M 0 35 L 80 35 V 65 L 0 65 V 35 z" style="fill: rgb(121, 85, 72); stroke: rgb(89, 63, 53); stroke-width: 4; stroke-linejoin: round;"></path><g></g><text text-anchor="middle" x="40" y="82" font-size="12">128</text></g></g><g><g transform="translate(1048.4094488188978, 50)"><path d="M 0 0 L 20 0 V 100 L 0 100 V 0 z" style="fill: rgb(255, 235, 59); stroke: rgb(255, 230, 8); stroke-width: 4; stroke-linejoin: round;"></path><g></g><text text-anchor="middle" x="10" y="117" font-size="12">6272</text></g></g><g><g transform="translate(1092.4094488188978, 50)"><path d="M 0 0 L 20 0 V 100 L 0 100 V 0 z" style="fill: rgb(156, 39, 176); stroke: rgb(119, 30, 134); stroke-width: 4; stroke-linejoin: round;"></path><g></g><text text-anchor="middle" x="10" y="117" font-size="12">1</text></g></g></g></g></svg>