<svg version='1.1' baseProfile='full' xmlns='http://www.w3.org/2000/svg' width='1127.6526638792197' height='145.48392326213394'><g transform='translate(5, 5)'><g transform='scale(1.132276193363355) translate(19.65625, -50)'><g><g><polyline points="20,100 32,100 44,100 " style="fill: none; stroke: black;"></polyline><g transform="translate(30, 105)"><text text-anchor="start" y="3" transform="rotate(90)" font-size="12">28x28</text></g></g><g transform="translate(-14, 105)"><text text-anchor="start" y="3" transform="rotate(90)" font-size="12">28x28</text></g></g><g><g><polyline points="70.66666666666666,100 82.66666666666666,100 94.66666666666666,100 " style="fill: none; stroke: black;"></polyline><g transform="translate(80.66666666666666, 105)"><text text-anchor="start" y="3" transform="rotate(90)" font-size="12">28x28</text></g></g></g><g><g><polyline points="121.33333333333331,100 133.33333333333331,100 145.33333333333331,100 " style="fill: none; stroke: black;"></polyline><g transform="translate(131.33333333333331, 105)"><text text-anchor="start" y="3" transform="rotate(90)" font-size="12">28x28</text></g></g></g><g><g><polyline points="172,100 183.99999999999997,100 195.99999999999997,100 " style="fill: none; stroke: black;"></polyline><g transform="translate(182, 105)"><text text-anchor="start" y="3" transform="rotate(90)" font-size="12">28x28</text></g></g></g><g><g><polyline points="230.28571428571425,100 242.28571428571425,100 254.28571428571425,100 " style="fill: none; stroke: black;"></polyline><g transform="translate(240.28571428571425, 105)"><text text-anchor="start" y="3" transform="rotate(90)" font-size="12">14x14</text></g></g></g><g><g><polyline points="288.57142857142856,100 300.57142857142856,100 312.57142857142856,100 " style="fill: none; stroke: black;"></polyline><g transform="translate(298.57142857142856, 105)"><text text-anchor="start" y="3" transform="rotate(90)" font-size="12">14x14</text></g></g></g><g><g><polyline points="346.8571428571429,100 358.85714285714283,100 370.85714285714283,100 " style="fill: none; stroke: black;"></polyline><g transform="translate(356.8571428571429, 105)"><text text-anchor="start" y="3" transform="rotate(90)" font-size="12">14x14</text></g></g></g><g><g><polyline points="420.38095238095235,100 432.38095238095235,100 444.38095238095235,100 " style="fill: none; stroke: black;"></polyline><g transform="translate(430.38095238095235, 105)"><text text-anchor="start" y="3" transform="rotate(90)" font-size="12">14x14</text></g></g></g><g><g><polyline points="493.90476190476187,100 505.90476190476187,100 517.9047619047619,100 " style="fill: none; stroke: black;"></polyline><g transform="translate(503.90476190476187, 105)"><text text-anchor="start" y="3" transform="rotate(90)" font-size="12">14x14</text></g></g></g><g><g><polyline points="567.4285714285716,100 579.4285714285714,100 591.4285714285714,100 " style="fill: none; stroke: black;"></polyline><g transform="translate(577.4285714285716, 105)"><text text-anchor="start" y="3" transform="rotate(90)" font-size="12">14x14</text></g></g></g><g><g><polyline points="671.4285714285714,100 683.4285714285714,100 695.4285714285714,100 " style="fill: none; stroke: black;"></polyline><g transform="translate(681.4285714285714, 105)"><text text-anchor="start" y="3" transform="rotate(90)" font-size="12">7x7</text></g></g></g><g><g><polyline points="775.4285714285714,100 787.4285714285714,100 799.4285714285714,100 " style="fill: none; stroke: black;"></polyline><g transform="translate(785.4285714285714, 105)"><text text-anchor="start" y="3" transform="rotate(90)" font-size="12">7x7</text></g></g></g><g><g><polyline points="879.4285714285714,100 891.4285714285714,100 903.4285714285714,100 " style="fill: none; stroke: black;"></polyline><g transform="translate(889.4285714285714, 105)"><text text-anchor="start" y="3" transform="rotate(90)" font-size="12">7x7</text></g></g></g><g><g><polyline points="923.4285714285714,100 935.4285714285714,100 947.4285714285714,100 " style="fill: none; stroke: black;"></polyline></g></g><g></g><g><g transform="translate(0, 50)"><path d="M 0 0 L 20 0 V 100 L 0 100 V 0 z" style="fill: rgb(33, 150, 243); stroke: rgb(12, 124, 213); stroke-width: 4; stroke-linejoin: round;"></path><g></g><text text-anchor="middle" x="10" y="117" font-size="12">1</text></g></g><g><g transform="translate(44, 50)"><path d="M 0 0 L 26.666666666666664 0 V 100 L 0 100 V 0 z" style="fill: rgb(139, 195, 74); stroke: rgb(113, 164, 54); stroke-width: 4; stroke-linejoin: round;"></path><g></g><text text-anchor="middle" x="13.333333333333332" y="117" font-size="12">8</text></g></g><g><g transform="translate(94.66666666666666, 50)"><path d="M 0 0 L 26.666666666666664 0 V 100 L 0 100 V 0 z" style="fill: rgb(244, 67, 54); stroke: rgb(234, 28, 13); stroke-width: 4; stroke-linejoin: round;"></path><g></g><text text-anchor="middle" x="13.333333333333332" y="117" font-size="12">8</text></g></g><g><g transform="translate(145.33333333333331, 50)"><path d="M 0 0 L 26.666666666666664 0 V 100 L 0 100 V 0 z" style="fill: rgb(121, 85, 72); stroke: rgb(89, 63, 53); stroke-width: 4; stroke-linejoin: round;"></path><g></g><text text-anchor="middle" x="13.333333333333332" y="117" font-size="12">8</text></g></g><g><g transform="translate(195.99999999999997, 50)"><path d="M 0 0 L 34.285714285714285 23.333333333333336 V 76.66666666666666 L 0 100 V 0 z" style="fill: rgb(139, 195, 74); stroke: rgb(113, 164, 54); stroke-width: 4; stroke-linejoin: round;"></path><g></g><text text-anchor="middle" x="17.142857142857142" y="117" font-size="12">16</text></g></g><g><g transform="translate(254.28571428571425, 50)"><path d="M 0 23.333333333333336 L 34.285714285714285 23.333333333333336 V 76.66666666666666 L 0 76.66666666666666 V 23.333333333333336 z" style="fill: rgb(244, 67, 54); stroke: rgb(234, 28, 13); stroke-width: 4; stroke-linejoin: round;"></path><g></g><text text-anchor="middle" x="17.142857142857142" y="93.66666666666666" font-size="12">16</text></g></g><g><g transform="translate(312.57142857142856, 50)"><path d="M 0 23.333333333333336 L 34.285714285714285 23.333333333333336 V 76.66666666666666 L 0 76.66666666666666 V 23.333333333333336 z" style="fill: rgb(121, 85, 72); stroke: rgb(89, 63, 53); stroke-width: 4; stroke-linejoin: round;"></path><g></g><text text-anchor="middle" x="17.142857142857142" y="93.66666666666666" font-size="12">16</text></g></g><g><g transform="translate(370.85714285714283, 50)"><path d="M 0 23.333333333333336 L 49.52380952380952 23.333333333333336 V 76.66666666666666 L 0 76.66666666666666 V 23.333333333333336 z" style="fill: rgb(139, 195, 74); stroke: rgb(113, 164, 54); stroke-width: 4; stroke-linejoin: round;"></path><g></g><text text-anchor="middle" x="24.76190476190476" y="93.66666666666666" font-size="12">32</text></g></g><g><g transform="translate(444.38095238095235, 50)"><path d="M 0 23.333333333333336 L 49.52380952380952 23.333333333333336 V 76.66666666666666 L 0 76.66666666666666 V 23.333333333333336 z" style="fill: rgb(244, 67, 54); stroke: rgb(234, 28, 13); stroke-width: 4; stroke-linejoin: round;"></path><g></g><text text-anchor="middle" x="24.76190476190476" y="93.66666666666666" font-size="12">32</text></g></g><g><g transform="translate(517.9047619047619, 50)"><path d="M 0 23.333333333333336 L 49.52380952380952 23.333333333333336 V 76.66666666666666 L 0 76.66666666666666 V 23.333333333333336 z" style="fill: rgb(121, 85, 72); stroke: rgb(89, 63, 53); stroke-width: 4; stroke-linejoin: round;"></path><g></g><text text-anchor="middle" x="24.76190476190476" y="93.66666666666666" font-size="12">32</text></g></g><g><g transform="translate(591.4285714285714, 50)"><path d="M 0 23.333333333333336 L 80 35 V 65 L 0 76.66666666666666 V 23.333333333333336 z" style="fill: rgb(139, 195, 74); stroke: rgb(113, 164, 54); stroke-width: 4; stroke-linejoin: round;"></path><g></g><text text-anchor="middle" x="40" y="93.66666666666666" font-size="12">64</text></g></g><g><g transform="translate(695.4285714285714, 50)"><path d="M 0 35 L 80 35 V 65 L 0 65 V 35 z" style="fill: rgb(244, 67, 54); stroke: rgb(234, 28, 13); stroke-width: 4; stroke-linejoin: round;"></path><g></g><text text-anchor="middle" x="40" y="82" font-size="12">64</text></g></g><g><g transform="translate(799.4285714285714, 50)"><path d="M 0 35 L 80 35 V 65 L 0 65 V 35 z" style="fill: rgb(121, 85, 72); stroke: rgb(89, 63, 53); stroke-width: 4; stroke-linejoin: round;"></path><g></g><text text-anchor="middle" x="40" y="82" font-size="12">64</text></g></g><g><g transform="translate(903.4285714285714, 50)"><path d="M 0 0 L 20 0 V 100 L 0 100 V 0 z" style="fill: rgb(255, 235, 59); stroke: rgb(255, 230, 8); stroke-width: 4; stroke-linejoin: round;"></path><g></g><text text-anchor="middle" x="10" y="117" font-size="12">3136</text></g></g><g><g transform="translate(947.4285714285714, 50)"><path d="M 0 0 L 20 0 V 100 L 0 100 V 0 z" style="fill: rgb(156, 39, 176); stroke: rgb(119, 30, 134); stroke-width: 4; stroke-linejoin: round;"></path><g></g><text text-anchor="middle" x="10" y="117" font-size="12">1</text></g></g></g></g></svg>