<svg version='1.1' baseProfile='full' xmlns='http://www.w3.org/2000/svg' width='533.6317821753889' height='145.48392326213394'><g transform='translate(5, 5)'><g transform='scale(1.132276193363355) translate(19.65625, -50)'><g><g><polyline points="20,100 32,100 44,100 " style="fill: none; stroke: black;"></polyline><g transform="translate(30, 105)"><text text-anchor="start" y="3" transform="rotate(90)" font-size="12">28x28</text></g></g><g transform="translate(-14, 105)"><text text-anchor="start" y="3" transform="rotate(90)" font-size="12">28x28</text></g></g><g><g><polyline points="398.8031496062992,100 410.8031496062992,100 422.8031496062992,100 " style="fill: none; stroke: black;"></polyline></g></g><g></g><g><g><polyline points="67.30708661417323,100 79.30708661417323,100 91.30708661417323,100 " style="fill: none; stroke: black;"></polyline><g transform="translate(77.30708661417323, 105)"><text text-anchor="start" y="3" transform="rotate(90)" font-size="12">28x28</text></g></g></g><g><g><polyline points="118.39370078740158,100 130.39370078740157,100 142.39370078740157,100 " style="fill: none; stroke: black;"></polyline><g transform="translate(128.3937007874016, 105)"><text text-anchor="start" y="3" transform="rotate(90)" font-size="12">14x14</text></g></g></g><g><g><polyline points="177.03937007874018,100 189.03937007874015,100 201.03937007874015,100 " style="fill: none; stroke: black;"></polyline><g transform="translate(187.03937007874018, 105)"><text text-anchor="start" y="3" transform="rotate(90)" font-size="12">14x14</text></g></g></g><g><g><polyline points="250.8031496062992,100 262.8031496062992,100 274.8031496062992,100 " style="fill: none; stroke: black;"></polyline><g transform="translate(260.8031496062992, 105)"><text text-anchor="start" y="3" transform="rotate(90)" font-size="12">7x7</text></g></g></g><g><g><polyline points="354.8031496062992,100 366.8031496062992,100 378.8031496062992,100 " style="fill: none; stroke: black;"></polyline><g transform="translate(364.8031496062992, 105)"><text text-anchor="start" y="3" transform="rotate(90)" font-size="12">7x7</text></g></g></g><g><g transform="translate(0, 50)"><path d="M 0 0 L 20 0 V 100 L 0 100 V 0 z" style="fill: rgb(33, 150, 243); stroke: rgb(12, 124, 213); stroke-width: 4; stroke-linejoin: round;"></path><g></g><text text-anchor="middle" x="10" y="117" font-size="12">1</text></g></g><g><g transform="translate(378.8031496062992, 50)"><path d="M 0 0 L 20 0 V 100 L 0 100 V 0 z" style="fill: rgb(255, 235, 59); stroke: rgb(255, 230, 8); stroke-width: 4; stroke-linejoin: round;"></path><g></g><text text-anchor="middle" x="10" y="117" font-size="12">6272</text></g></g><g><g transform="translate(422.8031496062992, 50)"><path d="M 0 0 L 20 0 V 100 L 0 100 V 0 z" style="fill: rgb(156, 39, 176); stroke: rgb(119, 30, 134); stroke-width: 4; stroke-linejoin: round;"></path><g></g><text text-anchor="middle" x="10" y="117" font-size="12">1</text></g></g><g><g transform="translate(44, 50)"><path d="M 0 0 L 23.30708661417323 0 V 100 L 0 100 V 0 z" style="fill: rgb(132, 132, 132); stroke: rgb(158, 158, 158); stroke-width: 12; stroke-linejoin: round;"></path><g></g><text text-anchor="middle" x="11.653543307086615" y="117" font-size="12">8</text></g></g><g><g transform="translate(91.30708661417323, 50)"><path d="M 0 0 L 27.086614173228348 23.333333333333336 V 76.66666666666666 L 0 100 V 0 z" style="fill: rgb(132, 132, 132); stroke: rgb(158, 158, 158); stroke-width: 12; stroke-linejoin: round;"></path><g></g><text text-anchor="middle" x="13.543307086614174" y="117" font-size="12">16</text></g></g><g><g transform="translate(142.39370078740157, 50)"><path d="M 0 23.333333333333336 L 34.645669291338585 23.333333333333336 V 76.66666666666666 L 0 76.66666666666666 V 23.333333333333336 z" style="fill: rgb(132, 132, 132); stroke: rgb(158, 158, 158); stroke-width: 12; stroke-linejoin: round;"></path><g></g><text text-anchor="middle" x="17.322834645669293" y="93.66666666666666" font-size="12">32</text></g></g><g><g transform="translate(201.03937007874015, 50)"><path d="M 0 23.333333333333336 L 49.76377952755905 35 V 65 L 0 76.66666666666666 V 23.333333333333336 z" style="fill: rgb(132, 132, 132); stroke: rgb(158, 158, 158); stroke-width: 12; stroke-linejoin: round;"></path><g></g><text text-anchor="middle" x="24.881889763779526" y="93.66666666666666" font-size="12">64</text></g></g><g><g transform="translate(274.8031496062992, 50)"><path d="M 0 35 L 80 35 V 65 L 0 65 V 35 z" style="fill: rgb(132, 132, 132); stroke: rgb(158, 158, 158); stroke-width: 12; stroke-linejoin: round;"></path><g></g><text text-anchor="middle" x="40" y="82" font-size="12">128</text></g></g></g></g></svg>