<svg xmlns="http://www.w3.org/2000/svg" xmlns:xlink="http://www.w3.org/1999/xlink" xmlns:lucid="lucid" width="1220" height="480"><g transform="translate(-80 -80)" lucid:page-tab-id="0_0"><path d="M500 340v200l-200-53.33v-93.34z" stroke="#000" stroke-width="2" fill="#fff"/><use xlink:href="#a" transform="matrix(1,-2.4492935982947064e-16,2.4492935982947064e-16,1,304.99999999999994,345) translate(26.763333333333335 105.90722222222223)"/><use xlink:href="#b" transform="matrix(1,-2.4492935982947064e-16,2.4492935982947064e-16,1,304.99999999999994,345) translate(146.71222222222224 105.90722222222223)"/><path d="M880 400V200l200 53.33v93.34z" stroke="#000" stroke-width="2" fill="#fff"/><use xlink:href="#c" transform="matrix(1,0,0,1,885,205) translate(8.295555555555552 105.90722222222223)"/><use xlink:href="#d" transform="matrix(1,0,0,1,885,205) translate(164.17777777777778 105.90722222222223)"/><path d="M220 208c0 6.63-26.86 12-60 12s-60-5.37-60-12v-96c0-6.63 26.86-12 60-12s60 5.37 60 12z" stroke="#000" stroke-width="2" fill="#fff"/><path d="M220 112c0 6.63-26.86 12-60 12s-60-5.37-60-12" stroke="#000" stroke-width="2" fill="none"/><use xlink:href="#e" transform="matrix(1,0,0,1,105,129) translate(30.204777777777775 52.344722222222224)"/><path d="M220 488c0 6.63-26.86 12-60 12s-60-5.37-60-12v-96c0-6.63 26.86-12 60-12s60 5.37 60 12z" stroke="#000" stroke-width="2" fill="#fff"/><path d="M220 392c0 6.63-26.86 12-60 12s-60-5.37-60-12" stroke="#000" stroke-width="2" fill="none"/><use xlink:href="#f" transform="matrix(1,0,0,1,105,409) translate(26.859555555555552 52.344722222222224)"/><path d="M612 100h128l-32 120H580z" stroke="#000" stroke-width="2" fill="#fff"/><use xlink:href="#g" transform="matrix(1,0,0,1,585,105) translate(68.71055555555556 64.03222222222223)"/><path d="M612 380h128l-32 120H580z" stroke="#000" stroke-width="2" fill="#fff"/><use xlink:href="#h" transform="matrix(1,0,0,1,585,385) translate(65.71611111111112 64.03222222222223)"/><path d="M378.3 161H222v-2h156.3zm198.16 0H390.88v-2h185.58z"/><path d="M222.03 161H221v-2h1.03zM591.73 160l-14.27 4.64v-9.28z"/><path d="M594.97 160l-18.5 6v-12zm-16.5 3.26l10.02-3.26-10.04-3.26z"/><use xlink:href="#g" transform="matrix(1,0,0,1,378.2902280045129,145.82222222222222) translate(0.004999999999999893 22.782222222222224)"/><path d="M249.53 441H222v-2h27.53zm30.97 0h-19.36v-2h19.36z"/><path d="M222.03 441H221v-2h1.03zM295.76 440l-14.26 4.64v-9.28z"/><path d="M299 440l-18.5 6v-12zm-16.5 3.26l10.03-3.26-10.03-3.26z"/><use xlink:href="#i" transform="matrix(1,0,0,1,249.52777777777777,425.8222222222222) translate(0.004999999999999893 22.782222222222224)"/><path d="M502 440h74.46" stroke="#000" stroke-width="2" fill="none"/><path d="M502.03 441H501v-2h1.03z"/><path d="M591.73 440l-14.27 4.64v-9.28z" stroke="#000" stroke-width="2"/><path d="M726.03 440H800V339.5" stroke="#000" stroke-width="2" fill="none"/><path d="M726.06 441h-1.3l.54-2h.76z"/><path d="M800 324.24l4.64 14.26h-9.28z" stroke="#000" stroke-width="2"/><path d="M726.03 160H800v100.5" stroke="#000" stroke-width="2" fill="none"/><path d="M726.06 161h-1.3l.54-2h.76z"/><path d="M800 275.76l-4.64-14.26h9.28z" stroke="#000" stroke-width="2"/><path d="M1200 240l80 60-80 60-80-60z" stroke="#000" stroke-width="2" fill="#fff"/><use xlink:href="#j" transform="matrix(1,0,0,1,1125,245) translate(16.90055555555555 64.03222222222223)"/><path d="M1082 300h17.83" stroke="#000" stroke-width="2" fill="none"/><path d="M1082.03 301H1081v-2h1.03z"/><path d="M1115.1 300l-14.27 4.64v-9.28z" stroke="#000" stroke-width="2"/><path d="M820 300c0 11.05-8.95 20-20 20s-20-8.95-20-20 8.95-20 20-20 20 8.95 20 20z" stroke="#000" stroke-width="2" fill="#fff"/><use xlink:href="#k" transform="matrix(1,0,0,1,785,285) translate(6.938333333333333 22.782222222222224)"/><path d="M822 300h38.5" stroke="#000" stroke-width="2" fill="none"/><path d="M822.03 301h-1.15l.12-.96-.03-1.04h1.06z"/><path d="M875.76 300l-14.26 4.64v-9.28z" stroke="#000" stroke-width="2"/><defs><path d="M397-70c43 1 85-5 114-13v-258h97v324C546 0 468 14 386 14 169 14 67-125 60-347c-9-289 247-432 522-326 11 4 18 9 22 12l-31 81c-38-25-111-46-175-44-161 5-235 113-235 277 0 165 70 273 234 277" id="l"/><path d="M315 12C141 9 53-87 53-259c0-164 81-274 237-274 163 0 227 118 216 298H150c9 108 58 165 175 165 54 0 101-11 133-25l13 78c-33 16-99 31-156 29zm95-322c8-101-82-177-178-132-47 22-73 71-80 132h258" id="m"/><path d="M279-449c-36 1-74 4-104 10V0H82v-505c55-13 130-26 207-26 153 0 213 87 213 239V0h-93v-272c1-107-22-180-130-177" id="n"/><path d="M82-498c73-28 204-47 296-18l-16 81c-44-19-138-19-187-2V0H82v-498" id="o"/><path d="M139-156c0 106 132 93 220 82v-155c-78-22-220-23-220 73zm-94 1c-2-152 173-180 314-148 5-94-26-150-117-150-50 0-101 8-132 20l-11-77c32-13 99-23 151-23 135 0 201 66 200 199V-9C390 1 319 11 247 11 126 11 46-34 45-155" id="p"/><path d="M257 11C121 11 76-66 76-201v-464l93-16v161h197v78H169v240c-1 80 17 131 96 131 43 0 79-13 103-23l18 77c-27 12-82 28-129 28" id="q"/><path d="M297-533c160 0 244 110 244 273S457 13 297 13 53-97 53-260s84-273 244-273zm0 464c98 0 147-85 147-191s-49-191-147-191-147 85-147 191S199-69 297-69" id="r"/><g id="a"><use transform="matrix(0.024444444444444446,0,0,0.024444444444444446,0,0)" xlink:href="#l"/><use transform="matrix(0.024444444444444446,0,0,0.024444444444444446,16.524444444444445,0)" xlink:href="#m"/><use transform="matrix(0.024444444444444446,0,0,0.024444444444444446,30.28666666666667,0)" xlink:href="#n"/><use transform="matrix(0.024444444444444446,0,0,0.024444444444444446,44.41555555555556,0)" xlink:href="#m"/><use transform="matrix(0.024444444444444446,0,0,0.024444444444444446,58.177777777777784,0)" xlink:href="#o"/><use transform="matrix(0.024444444444444446,0,0,0.024444444444444446,67.71111111111111,0)" xlink:href="#p"/><use transform="matrix(0.024444444444444446,0,0,0.024444444444444446,80.56888888888889,0)" xlink:href="#q"/><use transform="matrix(0.024444444444444446,0,0,0.024444444444444446,90.15111111111112,0)" xlink:href="#r"/><use transform="matrix(0.024444444444444446,0,0,0.024444444444444446,104.67111111111112,0)" xlink:href="#o"/></g><use transform="matrix(0.024444444444444446,0,0,0.024444444444444446,0,0)" xlink:href="#l" id="b"/><path d="M272-700c239 0 385 113 385 353S511 6 272 6C213 6 137 2 88-11v-672c49-13 125-17 184-17zM185-82c28 2 55 3 95 3 179 2 274-95 274-268s-95-270-274-268c-40 0-67 1-95 3v530" id="s"/><path d="M175 0H82v-520h93V0zm13-675c0 35-26 61-60 61s-60-26-60-61 26-61 60-61 60 26 60 61" id="t"/><path d="M59-97c36 13 83 32 144 30 63-2 112-9 112-63 0-99-160-93-221-153-24-24-44-52-44-100 0-151 196-178 331-127l-17 80c-60-35-257-49-214 69 69 92 264 59 259 227-2 107-89 146-206 146C133 12 82-2 42-17" id="u"/><path d="M447-14c-35 17-88 26-139 26C139 12 53-90 53-259c0-187 118-299 319-268 23 4 46 10 67 19l-21 79c-28-13-66-22-107-22-111 1-162 75-161 192 1 118 51 189 170 189 43 1 87-10 114-22" id="v"/><path d="M278-449c-36 0-74 4-103 10V0H82v-505c94-23 290-55 347 27 41-28 96-52 166-53 149-3 194 91 194 239V0h-93v-272c0-100-11-177-111-177-50 0-96 17-119 35 30 114 10 276 16 414h-93v-272c0-99-12-179-111-177" id="w"/><g id="c"><use transform="matrix(0.024444444444444446,0,0,0.024444444444444446,0,0)" xlink:href="#s"/><use transform="matrix(0.024444444444444446,0,0,0.024444444444444446,17.526666666666667,0)" xlink:href="#t"/><use transform="matrix(0.024444444444444446,0,0,0.024444444444444446,23.80888888888889,0)" xlink:href="#u"/><use transform="matrix(0.024444444444444446,0,0,0.024444444444444446,34.80888888888889,0)" xlink:href="#v"/><use transform="matrix(0.024444444444444446,0,0,0.024444444444444446,46.27333333333333,0)" xlink:href="#o"/><use transform="matrix(0.024444444444444446,0,0,0.024444444444444446,55.80666666666667,0)" xlink:href="#t"/><use transform="matrix(0.024444444444444446,0,0,0.024444444444444446,62.088888888888896,0)" xlink:href="#w"/><use transform="matrix(0.024444444444444446,0,0,0.024444444444444446,83.23333333333333,0)" xlink:href="#t"/><use transform="matrix(0.024444444444444446,0,0,0.024444444444444446,89.51555555555555,0)" xlink:href="#n"/><use transform="matrix(0.024444444444444446,0,0,0.024444444444444446,103.64444444444445,0)" xlink:href="#p"/><use transform="matrix(0.024444444444444446,0,0,0.024444444444444446,116.50222222222223,0)" xlink:href="#q"/><use transform="matrix(0.024444444444444446,0,0,0.024444444444444446,126.08444444444446,0)" xlink:href="#r"/><use transform="matrix(0.024444444444444446,0,0,0.024444444444444446,140.60444444444445,0)" xlink:href="#o"/></g><use transform="matrix(0.024444444444444446,0,0,0.024444444444444446,0,0)" xlink:href="#s" id="d"/><path d="M294-70c109-2 147-79 149-189 2-113-59-188-165-189-45 0-73 2-103 10v328c24 19 73 42 119 40zm-15-461c169 5 261 102 261 272C540-98 465 6 306 12c-51 2-103-18-131-35v208H82v-689c54-12 122-29 197-27" id="x"/><path d="M315-70c41 0 75-4 103-11v-329c-24-19-73-42-119-40-110 2-147 80-149 190-2 113 59 189 165 190zm-28-462c51-2 103 18 131 35v-263l93-16v761C458-1 388 13 314 12 145 7 53-90 53-260c0-162 75-266 234-272" id="y"/><g id="e"><use transform="matrix(0.024444444444444446,0,0,0.024444444444444446,0,0)" xlink:href="#x"/><use transform="matrix(0.01711111111111111,0,0,0.01711111111111111,14.495555555555557,3.986888888888889)" xlink:href="#y"/><use transform="matrix(0.01711111111111111,0,0,0.01711111111111111,24.642444444444443,3.986888888888889)" xlink:href="#p"/><use transform="matrix(0.01711111111111111,0,0,0.01711111111111111,33.64288888888889,3.986888888888889)" xlink:href="#q"/><use transform="matrix(0.01711111111111111,0,0,0.01711111111111111,40.59,3.986888888888889)" xlink:href="#p"/></g><g id="f"><use transform="matrix(0.024444444444444446,0,0,0.024444444444444446,0,0)" xlink:href="#x"/><use transform="matrix(0.01711111111111111,0,0,0.01711111111111111,14.495555555555557,3.986888888888889)" xlink:href="#n"/><use transform="matrix(0.01711111111111111,0,0,0.01711111111111111,24.38577777777778,3.986888888888889)" xlink:href="#r"/><use transform="matrix(0.01711111111111111,0,0,0.01711111111111111,34.54977777777778,3.986888888888889)" xlink:href="#t"/><use transform="matrix(0.01711111111111111,0,0,0.01711111111111111,38.94733333333333,3.986888888888889)" xlink:href="#u"/><use transform="matrix(0.01711111111111111,0,0,0.01711111111111111,46.647333333333336,3.986888888888889)" xlink:href="#m"/></g><path d="M18 0c47-93 120-191 180-273L26-520h105l124 182 125-182h99L311-279C371-196 448-94 495 0H393c-39-75-91-148-140-214-49 66-99 140-139 214H18" id="z"/><use transform="matrix(0.024444444444444446,0,0,0.024444444444444446,0,0)" xlink:href="#z" id="g"/><path d="M95-501c-14-80-24-166-21-259h97c3 93-7 179-21 259H95" id="A"/><g id="h"><use transform="matrix(0.024444444444444446,0,0,0.024444444444444446,0,0)" xlink:href="#z"/><use transform="matrix(0.024444444444444446,0,0,0.024444444444444446,12.58888888888889,0)" xlink:href="#A"/></g><path d="M427-450C332-341 227-207 149-78h286V0H38v-62c75-133 178-267 271-380H52v-78h375v70" id="B"/><use transform="matrix(0.024444444444444446,0,0,0.024444444444444446,0,0)" xlink:href="#B" id="i"/><path d="M551-693v84H333V0h-97v-609H18v-84h533" id="C"/><path d="M300-71c36 0 74-3 103-10v-439h93v505C441-2 367 11 290 11 138 11 76-78 76-228v-292h93v272c2 116 24 177 131 177" id="D"/><path d="M73 185h-95l339-968h93" id="E"/><path d="M88 0v-693h418v83H185v209h285v82H185V0H88" id="F"/><path d="M173-151c-3 59 26 79 78 83l-13 78C129 7 80-30 80-136v-624l93-16v625" id="G"/><g id="j"><use transform="matrix(0.024444444444444446,0,0,0.024444444444444446,0,0)" xlink:href="#C"/><use transform="matrix(0.024444444444444446,0,0,0.024444444444444446,12.931111111111111,0)" xlink:href="#o"/><use transform="matrix(0.024444444444444446,0,0,0.024444444444444446,22.464444444444446,0)" xlink:href="#D"/><use transform="matrix(0.024444444444444446,0,0,0.024444444444444446,36.593333333333334,0)" xlink:href="#m"/><use transform="matrix(0.024444444444444446,0,0,0.024444444444444446,50.35555555555556,0)" xlink:href="#E"/><use transform="matrix(0.024444444444444446,0,0,0.024444444444444446,59.84,0)" xlink:href="#F"/><use transform="matrix(0.024444444444444446,0,0,0.024444444444444446,71.81777777777778,0)" xlink:href="#p"/><use transform="matrix(0.024444444444444446,0,0,0.024444444444444446,84.67555555555556,0)" xlink:href="#G"/><use transform="matrix(0.024444444444444446,0,0,0.024444444444444446,91.44666666666667,0)" xlink:href="#u"/><use transform="matrix(0.024444444444444446,0,0,0.024444444444444446,102.44666666666667,0)" xlink:href="#m"/></g><path d="M332-115c78-179 145-380 212-578h104C563-448 477-223 376 0h-91C185-223 95-447 12-693h107c69 199 135 397 213 578" id="H"/><use transform="matrix(0.024444444444444446,0,0,0.024444444444444446,0,0)" xlink:href="#H" id="k"/></defs></g></svg>