<svg version='1.1' baseProfile='full' xmlns='http://www.w3.org/2000/svg' width='1140.675048828125' height='130'><g transform='translate(5, 5)'><g transform='scale(1) translate(0.265625, -50)'><g><g><polyline points="20,100 32,100 44,100 " style="fill: none; stroke: black;"></polyline></g></g><g><g><polyline points="64,100 76,100 88,100 " style="fill: none; stroke: black;"></polyline><g transform="translate(74, 105)"><text text-anchor="start" y="3" transform="rotate(90)" font-size="12">7x7</text></g></g></g><g><g><polyline points="111.30708661417322,100 123.30708661417323,100 135.30708661417322,100 " style="fill: none; stroke: black;"></polyline><g transform="translate(121.30708661417322, 105)"><text text-anchor="start" y="3" transform="rotate(90)" font-size="12">7x7</text></g></g></g><g><g><polyline points="158.61417322834643,100 170.61417322834643,100 182.61417322834643,100 " style="fill: none; stroke: black;"></polyline><g transform="translate(168.61417322834643, 105)"><text text-anchor="start" y="3" transform="rotate(90)" font-size="12">7x7</text></g></g></g><g><g><polyline points="205.92125984251965,100 217.92125984251965,100 229.92125984251965,100 " style="fill: none; stroke: black;"></polyline><g transform="translate(215.92125984251965, 105)"><text text-anchor="start" y="3" transform="rotate(90)" font-size="12">7x7</text></g></g></g><g><g><polyline points="257.007874015748,100 269.007874015748,100 281.007874015748,100 " style="fill: none; stroke: black;"></polyline><g transform="translate(267.007874015748, 105)"><text text-anchor="start" y="3" transform="rotate(90)" font-size="12">14x14</text></g></g></g><g><g><polyline points="308.0944881889763,100 320.0944881889763,100 332.0944881889763,100 " style="fill: none; stroke: black;"></polyline><g transform="translate(318.0944881889763, 105)"><text text-anchor="start" y="3" transform="rotate(90)" font-size="12">14x14</text></g></g></g><g><g><polyline points="359.1811023622046,100 371.1811023622046,100 383.1811023622046,100 " style="fill: none; stroke: black;"></polyline><g transform="translate(369.1811023622046, 105)"><text text-anchor="start" y="3" transform="rotate(90)" font-size="12">14x14</text></g></g></g><g><g><polyline points="417.8267716535432,100 429.82677165354323,100 441.82677165354323,100 " style="fill: none; stroke: black;"></polyline><g transform="translate(427.8267716535432, 105)"><text text-anchor="start" y="3" transform="rotate(90)" font-size="12">14x14</text></g></g></g><g><g><polyline points="476.4724409448818,100 488.47244094488184,100 500.47244094488184,100 " style="fill: none; stroke: black;"></polyline><g transform="translate(486.4724409448818, 105)"><text text-anchor="start" y="3" transform="rotate(90)" font-size="12">14x14</text></g></g></g><g><g><polyline points="535.1181102362204,100 547.1181102362204,100 559.1181102362204,100 " style="fill: none; stroke: black;"></polyline><g transform="translate(545.1181102362204, 105)"><text text-anchor="start" y="3" transform="rotate(90)" font-size="12">14x14</text></g></g></g><g><g><polyline points="608.8818897637796,100 620.8818897637796,100 632.8818897637796,100 " style="fill: none; stroke: black;"></polyline><g transform="translate(618.8818897637796, 105)"><text text-anchor="start" y="3" transform="rotate(90)" font-size="12">28x28</text></g></g></g><g><g><polyline points="682.6456692913387,100 694.6456692913387,100 706.6456692913387,100 " style="fill: none; stroke: black;"></polyline><g transform="translate(692.6456692913387, 105)"><text text-anchor="start" y="3" transform="rotate(90)" font-size="12">28x28</text></g></g></g><g><g><polyline points="756.4094488188978,100 768.4094488188978,100 780.4094488188978,100 " style="fill: none; stroke: black;"></polyline><g transform="translate(766.4094488188978, 105)"><text text-anchor="start" y="3" transform="rotate(90)" font-size="12">28x28</text></g></g></g><g><g><polyline points="860.4094488188978,100 872.4094488188978,100 884.4094488188978,100 " style="fill: none; stroke: black;"></polyline><g transform="translate(870.4094488188978, 105)"><text text-anchor="start" y="3" transform="rotate(90)" font-size="12">28x28</text></g></g></g><g><g><polyline points="964.4094488188978,100 976.4094488188978,100 988.4094488188978,100 " style="fill: none; stroke: black;"></polyline><g transform="translate(974.4094488188978, 105)"><text text-anchor="start" y="3" transform="rotate(90)" font-size="12">28x28</text></g></g></g><g><g><polyline points="1068.4094488188978,100 1080.4094488188978,100 1092.4094488188978,100 " style="fill: none; stroke: black;"></polyline><g transform="translate(1078.4094488188978, 105)"><text text-anchor="start" y="3" transform="rotate(90)" font-size="12">28x28</text></g></g></g><g><g transform="translate(1122.4094488188978, 105)"><text text-anchor="start" y="3" transform="rotate(90)" font-size="12">28x28</text></g></g><g><g transform="translate(0, 50)"><path d="M 0 0 L 20 0 V 100 L 0 100 V 0 z" style="fill: rgb(33, 150, 243); stroke: rgb(12, 124, 213); stroke-width: 4; stroke-linejoin: round;"></path><g></g><text text-anchor="middle" x="10" y="117" font-size="12">196</text></g></g><g><g transform="translate(44, 50)"><path d="M 0 0 L 20 35 V 65 L 0 100 V 0 z" style="fill: rgb(139, 195, 74); stroke: rgb(113, 164, 54); stroke-width: 4; stroke-linejoin: round;"></path><g></g><text text-anchor="middle" x="10" y="117" font-size="12">4</text></g></g><g><g transform="translate(88, 50)"><path d="M 0 35 L 23.30708661417323 35 V 65 L 0 65 V 35 z" style="fill: rgb(244, 67, 54); stroke: rgb(234, 28, 13); stroke-width: 4; stroke-linejoin: round;"></path><g></g><text text-anchor="middle" x="11.653543307086615" y="82" font-size="12">8</text></g></g><g><g transform="translate(135.30708661417322, 50)"><path d="M 0 35 L 23.30708661417323 35 V 65 L 0 65 V 35 z" style="fill: rgb(121, 85, 72); stroke: rgb(89, 63, 53); stroke-width: 4; stroke-linejoin: round;"></path><g></g><text text-anchor="middle" x="11.653543307086615" y="82" font-size="12">8</text></g></g><g><g transform="translate(182.61417322834643, 50)"><path d="M 0 35 L 23.30708661417323 35 V 65 L 0 65 V 35 z" style="fill: rgb(255, 235, 59); stroke: rgb(255, 230, 8); stroke-width: 4; stroke-linejoin: round;"></path><g></g><text text-anchor="middle" x="11.653543307086615" y="82" font-size="12">8</text></g></g><g><g transform="translate(229.92125984251965, 50)"><path d="M 0 35 L 27.086614173228348 23.333333333333336 V 76.66666666666666 L 0 65 V 35 z" style="fill: rgb(244, 67, 54); stroke: rgb(234, 28, 13); stroke-width: 4; stroke-linejoin: round;"></path><g></g><text text-anchor="middle" x="13.543307086614174" y="93.66666666666666" font-size="12">16</text></g></g><g><g transform="translate(281.007874015748, 50)"><path d="M 0 23.333333333333336 L 27.086614173228348 23.333333333333336 V 76.66666666666666 L 0 76.66666666666666 V 23.333333333333336 z" style="fill: rgb(121, 85, 72); stroke: rgb(89, 63, 53); stroke-width: 4; stroke-linejoin: round;"></path><g></g><text text-anchor="middle" x="13.543307086614174" y="93.66666666666666" font-size="12">16</text></g></g><g><g transform="translate(332.0944881889763, 50)"><path d="M 0 23.333333333333336 L 27.086614173228348 23.333333333333336 V 76.66666666666666 L 0 76.66666666666666 V 23.333333333333336 z" style="fill: rgb(255, 235, 59); stroke: rgb(255, 230, 8); stroke-width: 4; stroke-linejoin: round;"></path><g></g><text text-anchor="middle" x="13.543307086614174" y="93.66666666666666" font-size="12">16</text></g></g><g><g transform="translate(383.1811023622046, 50)"><path d="M 0 23.333333333333336 L 34.645669291338585 23.333333333333336 V 76.66666666666666 L 0 76.66666666666666 V 23.333333333333336 z" style="fill: rgb(244, 67, 54); stroke: rgb(234, 28, 13); stroke-width: 4; stroke-linejoin: round;"></path><g></g><text text-anchor="middle" x="17.322834645669293" y="93.66666666666666" font-size="12">32</text></g></g><g><g transform="translate(441.82677165354323, 50)"><path d="M 0 23.333333333333336 L 34.645669291338585 23.333333333333336 V 76.66666666666666 L 0 76.66666666666666 V 23.333333333333336 z" style="fill: rgb(121, 85, 72); stroke: rgb(89, 63, 53); stroke-width: 4; stroke-linejoin: round;"></path><g></g><text text-anchor="middle" x="17.322834645669293" y="93.66666666666666" font-size="12">32</text></g></g><g><g transform="translate(500.47244094488184, 50)"><path d="M 0 23.333333333333336 L 34.645669291338585 23.333333333333336 V 76.66666666666666 L 0 76.66666666666666 V 23.333333333333336 z" style="fill: rgb(255, 235, 59); stroke: rgb(255, 230, 8); stroke-width: 4; stroke-linejoin: round;"></path><g></g><text text-anchor="middle" x="17.322834645669293" y="93.66666666666666" font-size="12">32</text></g></g><g><g transform="translate(559.1181102362204, 50)"><path d="M 0 23.333333333333336 L 49.76377952755905 0 V 100 L 0 76.66666666666666 V 23.333333333333336 z" style="fill: rgb(244, 67, 54); stroke: rgb(234, 28, 13); stroke-width: 4; stroke-linejoin: round;"></path><g></g><text text-anchor="middle" x="24.881889763779526" y="117" font-size="12">64</text></g></g><g><g transform="translate(632.8818897637796, 50)"><path d="M 0 0 L 49.76377952755905 0 V 100 L 0 100 V 0 z" style="fill: rgb(121, 85, 72); stroke: rgb(89, 63, 53); stroke-width: 4; stroke-linejoin: round;"></path><g></g><text text-anchor="middle" x="24.881889763779526" y="117" font-size="12">64</text></g></g><g><g transform="translate(706.6456692913387, 50)"><path d="M 0 0 L 49.76377952755905 0 V 100 L 0 100 V 0 z" style="fill: rgb(255, 235, 59); stroke: rgb(255, 230, 8); stroke-width: 4; stroke-linejoin: round;"></path><g></g><text text-anchor="middle" x="24.881889763779526" y="117" font-size="12">64</text></g></g><g><g transform="translate(780.4094488188978, 50)"><path d="M 0 0 L 80 0 V 100 L 0 100 V 0 z" style="fill: rgb(244, 67, 54); stroke: rgb(234, 28, 13); stroke-width: 4; stroke-linejoin: round;"></path><g></g><text text-anchor="middle" x="40" y="117" font-size="12">128</text></g></g><g><g transform="translate(884.4094488188978, 50)"><path d="M 0 0 L 80 0 V 100 L 0 100 V 0 z" style="fill: rgb(121, 85, 72); stroke: rgb(89, 63, 53); stroke-width: 4; stroke-linejoin: round;"></path><g></g><text text-anchor="middle" x="40" y="117" font-size="12">128</text></g></g><g><g transform="translate(988.4094488188978, 50)"><path d="M 0 0 L 80 0 V 100 L 0 100 V 0 z" style="fill: rgb(255, 235, 59); stroke: rgb(255, 230, 8); stroke-width: 4; stroke-linejoin: round;"></path><g></g><text text-anchor="middle" x="40" y="117" font-size="12">128</text></g></g><g><g transform="translate(1092.4094488188978, 50)"><path d="M 0 0 L 20 0 V 100 L 0 100 V 0 z" style="fill: rgb(244, 67, 54); stroke: rgb(234, 28, 13); stroke-width: 4; stroke-linejoin: round;"></path><g></g><text text-anchor="middle" x="10" y="117" font-size="12">1</text></g></g></g></g></svg>