<svg version='1.1' baseProfile='full' xmlns='http://www.w3.org/2000/svg' width='471.06878662109375' height='130'><g transform='translate(5, 5)'><g transform='scale(1) translate(0.265625, -50)'><g><g><polyline points="20,100 32,100 44,100 " style="fill: none; stroke: black;"></polyline></g></g><g><g><polyline points="64,100 76,100 88,100 " style="fill: none; stroke: black;"></polyline><g transform="translate(74, 105)"><text text-anchor="start" y="3" transform="rotate(90)" font-size="12">7x7</text></g></g></g><g><g transform="translate(452.8031496062992, 105)"><text text-anchor="start" y="3" transform="rotate(90)" font-size="12">28x28</text></g></g><g><g><polyline points="111.30708661417322,100 123.30708661417323,100 135.30708661417322,100 " style="fill: none; stroke: black;"></polyline><g transform="translate(121.30708661417322, 105)"><text text-anchor="start" y="3" transform="rotate(90)" font-size="12">7x7</text></g></g></g><g><g><polyline points="162.39370078740154,100 174.39370078740157,100 186.39370078740157,100 " style="fill: none; stroke: black;"></polyline><g transform="translate(172.39370078740154, 105)"><text text-anchor="start" y="3" transform="rotate(90)" font-size="12">14x14</text></g></g></g><g><g><polyline points="221.03937007874018,100 233.03937007874015,100 245.03937007874018,100 " style="fill: none; stroke: black;"></polyline><g transform="translate(231.03937007874018, 105)"><text text-anchor="start" y="3" transform="rotate(90)" font-size="12">14x14</text></g></g></g><g><g><polyline points="294.80314960629926,100 306.8031496062992,100 318.8031496062992,100 " style="fill: none; stroke: black;"></polyline><g transform="translate(304.80314960629926, 105)"><text text-anchor="start" y="3" transform="rotate(90)" font-size="12">28x28</text></g></g></g><g><g><polyline points="398.8031496062992,100 410.8031496062992,100 422.8031496062992,100 " style="fill: none; stroke: black;"></polyline><g transform="translate(408.8031496062992, 105)"><text text-anchor="start" y="3" transform="rotate(90)" font-size="12">28x28</text></g></g></g><g><g transform="translate(0, 50)"><path d="M 0 0 L 20 0 V 100 L 0 100 V 0 z" style="fill: rgb(33, 150, 243); stroke: rgb(12, 124, 213); stroke-width: 4; stroke-linejoin: round;"></path><g></g><text text-anchor="middle" x="10" y="117" font-size="12">196</text></g></g><g><g transform="translate(44, 50)"><path d="M 0 0 L 20 35 V 65 L 0 100 V 0 z" style="fill: rgb(139, 195, 74); stroke: rgb(113, 164, 54); stroke-width: 4; stroke-linejoin: round;"></path><g></g><text text-anchor="middle" x="10" y="117" font-size="12">4</text></g></g><g><g transform="translate(422.8031496062992, 50)"><path d="M 0 0 L 20 0 V 100 L 0 100 V 0 z" style="fill: rgb(244, 67, 54); stroke: rgb(234, 28, 13); stroke-width: 4; stroke-linejoin: round;"></path><g></g><text text-anchor="middle" x="10" y="117" font-size="12">1</text></g></g><g><g transform="translate(88, 50)"><path d="M 0 35 L 23.30708661417323 35 V 65 L 0 65 V 35 z" style="fill: rgb(119, 30, 134); stroke: rgb(156, 39, 176); stroke-width: 12; stroke-linejoin: round;"></path><g></g><text text-anchor="middle" x="11.653543307086615" y="82" font-size="12">8</text></g></g><g><g transform="translate(135.30708661417322, 50)"><path d="M 0 35 L 27.086614173228348 23.333333333333336 V 76.66666666666666 L 0 65 V 35 z" style="fill: rgb(119, 30, 134); stroke: rgb(156, 39, 176); stroke-width: 12; stroke-linejoin: round;"></path><g></g><text text-anchor="middle" x="13.543307086614174" y="93.66666666666666" font-size="12">16</text></g></g><g><g transform="translate(186.39370078740157, 50)"><path d="M 0 23.333333333333336 L 34.645669291338585 23.333333333333336 V 76.66666666666666 L 0 76.66666666666666 V 23.333333333333336 z" style="fill: rgb(119, 30, 134); stroke: rgb(156, 39, 176); stroke-width: 12; stroke-linejoin: round;"></path><g></g><text text-anchor="middle" x="17.322834645669293" y="93.66666666666666" font-size="12">32</text></g></g><g><g transform="translate(245.03937007874018, 50)"><path d="M 0 23.333333333333336 L 49.76377952755905 0 V 100 L 0 76.66666666666666 V 23.333333333333336 z" style="fill: rgb(119, 30, 134); stroke: rgb(156, 39, 176); stroke-width: 12; stroke-linejoin: round;"></path><g></g><text text-anchor="middle" x="24.881889763779526" y="117" font-size="12">64</text></g></g><g><g transform="translate(318.8031496062992, 50)"><path d="M 0 0 L 80 0 V 100 L 0 100 V 0 z" style="fill: rgb(119, 30, 134); stroke: rgb(156, 39, 176); stroke-width: 12; stroke-linejoin: round;"></path><g></g><text text-anchor="middle" x="40" y="117" font-size="12">128</text></g></g></g></g></svg>